<svg width="16" height="14" viewBox="0 0 16 14" fill="none" xmlns="http://www.w3.org/2000/svg">
<g clip-path="url(#clip0_2_679)">
<path d="M1.18738 6.29813H13.198L8.59896 1.91889C8.35814 1.68957 8.3488 1.30858 8.57818 1.06783C8.80726 0.827382 9.18836 0.817752 9.42948 1.04707L14.6818 6.04865C14.9091 6.27615 15.0346 6.5783 15.0346 6.90001C15.0346 7.2214 14.9091 7.52385 14.6712 7.76128L9.42918 12.7527C9.31269 12.8636 9.16338 12.9187 9.01407 12.9187C8.85513 12.9187 8.69619 12.8561 8.57789 12.7319C8.34851 12.4912 8.35784 12.1105 8.59866 11.8812L13.217 7.50188H1.18738C0.855047 7.50188 0.585327 7.23224 0.585327 6.90001C0.585327 6.56777 0.855047 6.29813 1.18738 6.29813Z" fill="#1A1A1A"/>
</g>
<defs>
<clipPath id="clip0_2_679">
<rect width="15" height="12.84" fill="white" transform="translate(0.309937 0.47998)"/>
</clipPath>
</defs>
</svg>
