<svg width="35" height="33" viewBox="0 0 35 33" fill="none" xmlns="http://www.w3.org/2000/svg">
<path d="M17.5001 30.5965H6.65006C6.02784 30.5965 5.52229 30.3826 5.1334 29.9548C4.74451 29.527 4.55007 29.0409 4.55007 28.4965V13.9131L15.5167 4.2298C16.0612 3.76314 16.7223 3.5298 17.5001 3.5298C18.2778 3.5298 18.939 3.76314 19.4834 4.2298L33.3667 16.4798C33.5223 16.6354 33.7167 16.6937 33.9501 16.6548C34.1834 16.6159 34.3778 16.5187 34.5334 16.3631C34.689 16.2076 34.7473 16.0131 34.7084 15.7798C34.6695 15.5465 34.5723 15.352 34.4167 15.1965L32.0834 13.2131V4.9298C32.0834 3.76314 31.6556 2.75203 30.8001 1.89647C29.9445 1.04091 28.9334 0.632582 27.7667 0.671471C26.6001 0.71036 25.6084 1.13814 24.7917 1.9548C23.9751 2.77147 23.5278 3.76314 23.4501 4.9298V5.6298L20.5334 3.06314C19.6778 2.28536 18.6667 1.89647 17.5001 1.89647C16.3334 1.89647 15.3223 2.28536 14.4667 3.06314L0.583398 15.1965C0.350065 15.352 0.233398 15.5465 0.233398 15.7798C0.233398 16.0131 0.311176 16.2076 0.466732 16.3631C0.622287 16.5187 0.816732 16.6159 1.05007 16.6548C1.2834 16.6937 1.47784 16.6354 1.6334 16.4798L2.91673 15.4298V28.4965C2.91673 29.5076 3.28618 30.3826 4.02507 31.1215C4.76395 31.8604 5.63895 32.2298 6.65006 32.2298H17.5001C17.7334 32.2298 17.9278 32.152 18.0834 31.9965C18.239 31.8409 18.3167 31.6465 18.3167 31.4131C18.3167 31.1798 18.239 30.9854 18.0834 30.8298C17.9278 30.6742 17.7334 30.5965 17.5001 30.5965ZM25.0834 4.9298C25.1612 4.15203 25.4528 3.51036 25.9584 3.0048C26.464 2.49925 27.0862 2.26591 27.8251 2.3048C28.564 2.34369 29.1862 2.61592 29.6917 3.12147C30.1973 3.62703 30.4501 4.2298 30.4501 4.9298V11.6965L25.0834 7.0298V4.9298ZM17.5001 8.89647C16.4112 8.89647 15.4778 9.28536 14.7001 10.0631C13.9223 10.8409 13.5334 11.7742 13.5334 12.8631C13.5334 13.952 13.9223 14.8854 14.7001 15.6631C15.4778 16.4409 16.4112 16.8298 17.5001 16.8298C18.589 16.8298 19.5223 16.4409 20.3001 15.6631C21.0778 14.8854 21.4667 13.952 21.4667 12.8631C21.4667 11.7742 21.0778 10.8409 20.3001 10.0631C19.5223 9.28536 18.589 8.89647 17.5001 8.89647ZM19.8334 12.8631C19.8334 13.5631 19.6001 14.127 19.1334 14.5548C18.6667 14.9826 18.1223 15.1965 17.5001 15.1965C16.8778 15.1965 16.3334 14.9826 15.8667 14.5548C15.4001 14.127 15.1667 13.5826 15.1667 12.9215C15.1667 12.2604 15.4001 11.6965 15.8667 11.2298C16.3334 10.7631 16.8778 10.5298 17.5001 10.5298C18.1223 10.5298 18.6667 10.7631 19.1334 11.2298C19.6001 11.6965 19.8334 12.2409 19.8334 12.8631ZM34.5334 30.9465L31.7334 28.0298C32.4334 27.0187 32.7834 25.8909 32.7834 24.6465C32.7834 23.0909 32.2195 21.7687 31.0917 20.6798C29.964 19.5909 28.6223 19.0465 27.0667 19.0465C25.5112 19.0465 24.1695 19.5909 23.0417 20.6798C21.914 21.7687 21.3501 23.1104 21.3501 24.7048C21.3501 26.2992 21.914 27.6409 23.0417 28.7298C24.1695 29.8187 25.5112 30.3631 27.0667 30.3631C28.389 30.3631 29.5556 29.9742 30.5667 29.1965L33.2501 31.9965C33.4056 32.152 33.6001 32.2492 33.8334 32.2881C34.0667 32.327 34.2806 32.2687 34.4751 32.1131C34.6695 31.9576 34.7667 31.7631 34.7667 31.5298C34.7667 31.2965 34.689 31.102 34.5334 30.9465ZM27.0667 28.7298C25.9778 28.7298 25.0251 28.3409 24.2084 27.5631C23.3917 26.7854 22.9834 25.8326 22.9834 24.7048C22.9834 23.577 23.3917 22.6242 24.2084 21.8465C25.0251 21.0687 25.9973 20.6798 27.1251 20.6798C28.2528 20.6798 29.2056 21.0687 29.9834 21.8465C30.7612 22.6242 31.1501 23.577 31.1501 24.7048C31.1501 25.8326 30.7612 26.7854 29.9834 27.5631C29.2056 28.3409 28.2334 28.7298 27.0667 28.7298Z" fill="#1A1A1A"/>
</svg>
