<svg width="35" height="36" viewBox="0 0 35 36" fill="none" xmlns="http://www.w3.org/2000/svg">
<g clip-path="url(#clip0_2_1407)">
<path d="M18.4332 21.5932C18.1999 21.5932 18.0054 21.5154 17.8499 21.3599C16.8388 20.4265 16.3721 19.2988 16.4499 17.9765C16.4499 16.9654 16.6832 16.0321 17.1499 15.1765C17.2277 14.9432 17.3638 14.8071 17.5582 14.7682C17.7527 14.7293 17.9471 14.7682 18.1416 14.8849C18.336 15.0015 18.4527 15.1571 18.4916 15.3515C18.5304 15.546 18.511 15.721 18.4332 15.8765C18.1221 16.2654 17.9277 16.8099 17.8499 17.5099C17.6943 18.5988 18.0443 19.5321 18.8999 20.3099C19.1332 20.5432 19.1916 20.8154 19.0749 21.1265C18.9582 21.4376 18.7054 21.5932 18.3166 21.5932H18.4332ZM5.48322 24.7432C4.62766 24.6654 3.88877 24.3154 3.26655 23.6932C2.56655 22.9932 2.21655 22.1182 2.21655 21.0682C2.21655 20.0182 2.56655 19.1432 3.26655 18.4432L10.6166 10.9765C10.9277 10.7432 11.1999 10.5488 11.4332 10.3932C11.6666 10.2376 11.8804 10.1988 12.0749 10.2765C12.2693 10.3543 12.4054 10.471 12.4832 10.6265C12.561 10.7821 12.5804 10.9571 12.5416 11.1515C12.5027 11.346 12.386 11.5015 12.1916 11.6182C11.9971 11.7349 11.8221 11.871 11.6666 12.0265L4.31655 19.4932C3.84989 19.8821 3.61655 20.4071 3.61655 21.0682C3.61655 21.7293 3.84989 22.2543 4.31655 22.6432C4.54989 22.9543 4.861 23.1488 5.24989 23.2265L7.46655 21.0099C7.62211 20.8543 7.81655 20.7765 8.04989 20.7765L9.09989 21.0099L9.68322 20.4265V18.5599C9.68322 18.4043 9.761 18.2488 9.91655 18.0932C10.0721 17.9376 10.2277 17.8599 10.3832 17.8599L12.3666 17.7432L14.9332 15.1765L15.1666 14.9432C15.2443 14.7876 15.3804 14.6904 15.5749 14.6515C15.7693 14.6126 15.9638 14.6515 16.1582 14.7682C16.3527 14.8849 16.4693 15.0404 16.5082 15.2349C16.5471 15.4293 16.4888 15.6043 16.3332 15.7599L15.9832 16.2265L13.1832 19.0265C13.0277 19.1821 12.8721 19.2599 12.7166 19.2599H11.1999V20.7765C11.1999 21.0099 11.1221 21.1654 10.9666 21.2432L9.91655 22.4099C9.761 22.5654 9.56655 22.6043 9.33322 22.5265L8.28322 22.4099L6.06655 24.6265C5.911 24.7043 5.71655 24.7432 5.48322 24.7432ZM18.6666 16.3432C17.2666 16.3432 15.9638 16.0321 14.7582 15.4099C13.5527 14.7876 12.561 13.9126 11.7832 12.7849C11.0054 11.6571 10.5582 10.3932 10.4416 8.9932C10.3249 7.5932 10.5388 6.27098 11.0832 5.02653C11.6277 3.78209 12.4443 2.75153 13.5332 1.93486C14.6221 1.11819 15.8666 0.593197 17.2666 0.359863C17.4999 0.282085 17.7138 0.359863 17.9082 0.593197C18.1027 0.82653 18.161 1.07931 18.0832 1.35153C18.0054 1.62375 17.811 1.79875 17.4999 1.87653C15.7888 2.10986 14.4082 2.92653 13.3582 4.32653C12.3082 5.72653 11.8999 7.30153 12.1332 9.05153C12.3666 10.8015 13.1443 12.221 14.4666 13.3099C15.7888 14.3988 17.3054 14.9043 19.0166 14.8265C20.7277 14.7488 22.186 14.0682 23.3916 12.7849C24.5971 11.5015 25.1999 10.0043 25.1999 8.2932C25.1999 7.20431 24.9666 6.1932 24.4999 5.25986C24.0332 4.32653 23.3332 3.54875 22.3999 2.92653C22.2443 2.77097 22.1666 2.59597 22.1666 2.40153C22.1666 2.20708 22.2249 2.03209 22.3416 1.87653C22.4582 1.72097 22.6138 1.62375 22.8082 1.58486C23.0027 1.54597 23.1777 1.60431 23.3332 1.75986C24.7332 2.77097 25.7249 4.0932 26.3082 5.72653C26.8916 7.35986 26.911 9.01264 26.3666 10.6849C25.8221 12.3571 24.8499 13.7182 23.4499 14.7682C22.0499 15.8182 20.4554 16.3432 18.6666 16.3432ZM20.2999 1.87653C20.2221 1.87653 20.1249 1.85709 20.0082 1.8182C19.8916 1.77931 19.7749 1.68209 19.6582 1.52653C19.5416 1.37098 19.5027 1.17653 19.5416 0.943195C19.5804 0.709862 19.736 0.534863 20.0082 0.418198C20.2804 0.301529 20.5332 0.34042 20.7666 0.534863C20.9999 0.729309 21.0777 0.943195 20.9999 1.17653C20.9221 1.40986 20.8249 1.58486 20.7082 1.70153C20.5916 1.8182 20.4166 1.87653 20.1832 1.87653H20.2999ZM19.7166 9.6932C18.861 9.6932 18.161 9.42097 17.6166 8.87653C17.0721 8.33208 16.7999 7.65153 16.7999 6.83486C16.7999 6.0182 17.0721 5.3182 17.6166 4.73486C18.161 4.15153 18.8416 3.85986 19.6582 3.85986C20.4749 3.85986 21.1749 4.15153 21.7582 4.73486C22.3416 5.3182 22.6332 6.0182 22.6332 6.83486C22.6332 7.65153 22.3416 8.33208 21.7582 8.87653C21.1749 9.42097 20.4943 9.6932 19.7166 9.6932ZM19.7166 5.37653C19.3277 5.37653 18.9777 5.51264 18.6666 5.78486C18.3554 6.05709 18.1999 6.38764 18.1999 6.77653C18.1999 7.16542 18.3554 7.51542 18.6666 7.82653C18.9777 8.13764 19.3277 8.2932 19.7166 8.2932C20.1054 8.2932 20.436 8.13764 20.7082 7.82653C20.9804 7.51542 21.1166 7.16542 21.1166 6.77653C21.1166 6.38764 20.9804 6.05709 20.7082 5.78486C20.436 5.51264 20.1054 5.37653 19.7166 5.37653ZM29.1666 35.3599C29.011 35.3599 28.8554 35.2821 28.6999 35.1265C28.5443 34.971 28.4666 34.8154 28.4666 34.6599V26.3765V26.0265C28.3888 25.7932 28.4277 25.5793 28.5832 25.3849C28.7388 25.1904 28.9332 25.1321 29.1666 25.2099H29.9832L22.1666 18.7932L14.2332 25.0932H15.0499C15.361 25.0932 15.5749 25.1904 15.6916 25.3849C15.8082 25.5793 15.8666 25.7932 15.8666 26.0265L15.7499 26.3765V34.6599C15.7499 34.8154 15.6916 34.971 15.5749 35.1265C15.4582 35.2821 15.2832 35.3599 15.0499 35.3599C14.8166 35.3599 14.6416 35.2821 14.5249 35.1265C14.4082 34.971 14.3499 34.8154 14.3499 34.6599V26.6099H12.1332C11.8221 26.6099 11.6082 26.4543 11.4916 26.1432C11.3749 25.8321 11.4332 25.5599 11.6666 25.3265L21.6999 17.2765C21.7777 17.1988 21.9138 17.1599 22.1082 17.1599C22.3027 17.1599 22.4777 17.1988 22.6332 17.2765L32.5499 25.3265C32.7832 25.5599 32.8416 25.8321 32.7249 26.1432C32.6082 26.4543 32.3943 26.6099 32.0832 26.6099H29.9832V34.6599C29.9832 34.8154 29.9054 34.971 29.7499 35.1265C29.5943 35.2821 29.3999 35.3599 29.1666 35.3599ZM22.1666 23.8099C22.011 23.8099 21.8554 23.7321 21.6999 23.5765C21.5443 23.421 21.4666 23.246 21.4666 23.0515C21.4666 22.8571 21.5443 22.6821 21.6999 22.5265C24.3443 20.1932 25.5499 17.821 25.3166 15.4099C25.0832 13.4654 24.0332 11.5599 22.1666 9.6932C21.2332 8.75986 20.2999 8.02098 19.3666 7.47653C19.0554 7.32097 18.8999 7.08764 18.8999 6.77653C18.8999 6.46542 19.036 6.25153 19.3082 6.13486C19.5804 6.0182 19.8332 6.03764 20.0666 6.1932C21.1554 6.81542 22.2054 7.67097 23.2166 8.75986C25.3166 10.8599 26.4832 12.9988 26.7166 15.1765C27.0277 18.1321 25.6666 20.971 22.6332 23.6932C22.5554 23.771 22.3999 23.8099 22.1666 23.8099ZM24.0332 35.1265C23.8777 35.1265 23.7221 35.0682 23.5666 34.9515C23.411 34.8349 23.3332 34.6599 23.3332 34.4265V29.9932C23.3332 29.6821 23.236 29.4293 23.0416 29.2349C22.8471 29.0404 22.5943 28.9432 22.2832 28.9432H21.4666C21.1554 28.9432 20.9027 29.0404 20.7082 29.2349C20.5138 29.4293 20.4166 29.6821 20.4166 29.9932V34.4265C20.4166 34.6599 20.3388 34.8349 20.1832 34.9515C20.0277 35.0682 19.8527 35.1265 19.6582 35.1265C19.4638 35.1265 19.2888 35.0682 19.1332 34.9515C18.9777 34.8349 18.8999 34.6599 18.8999 34.4265V29.9932C18.8999 29.2932 19.1527 28.6904 19.6582 28.1849C20.1638 27.6793 20.7666 27.4265 21.4666 27.4265H22.2832C22.9832 27.4265 23.586 27.6793 24.0916 28.1849C24.5971 28.6904 24.811 29.2932 24.7332 29.9932V34.4265C24.811 34.6599 24.7721 34.8349 24.6166 34.9515C24.461 35.0682 24.2666 35.1265 24.0332 35.1265Z" fill="#1A1A1A"/>
</g>
<defs>
<clipPath id="clip0_2_1407">
<rect width="35" height="35" fill="white" transform="matrix(1 0 0 -1 0 35.3599)"/>
</clipPath>
</defs>
</svg>
