<svg width="200" height="58" viewBox="0 0 200 58" fill="none" xmlns="http://www.w3.org/2000/svg">
<g clip-path="url(#clip0_2_3503)">
<g clip-path="url(#clip1_2_3503)">
<path fill-rule="evenodd" clip-rule="evenodd" d="M24.4471 15.4922L24.4353 56.1342L28.7746 56.1221L28.7625 41.9357L36.4281 41.9236L36.416 56.1221H40.9578V0.990234L36.4039 4.00979L36.3983 37.6368L28.8102 37.6117L28.8162 8.00455L0 24.6733L0.0387793 47.5219L4.59272 47.5343L4.59861 27.2012L24.4471 15.4922Z" fill="#1A1A1A"/>
<path fill-rule="evenodd" clip-rule="evenodd" d="M16.567 55.9323V25.0576L12.0856 27.6841L12.1802 51.7395L0.0686547 51.6443L0.00878906 55.9082L16.567 55.9323Z" fill="#1A1A1A"/>
<path d="M72.3921 33.0721V18.1396H76.0586V33.0721C76.0586 34.4886 75.7555 35.6951 75.1493 36.6916C74.5431 37.6881 73.717 38.4501 72.6708 38.9776C71.6246 39.5052 70.4367 39.769 69.107 39.769C67.7479 39.769 66.5404 39.5394 65.4845 39.0802C64.4383 38.6211 63.6171 37.9177 63.0206 36.97C62.4242 36.0224 62.126 34.8208 62.126 33.3651H65.8218C65.8218 34.2053 65.9538 34.8843 66.2178 35.402C66.4916 35.9101 66.8729 36.2813 67.3617 36.5158C67.8604 36.7405 68.4421 36.8528 69.107 36.8528C69.7425 36.8528 70.3047 36.7111 70.7936 36.4278C71.2922 36.1348 71.6833 35.7098 71.9668 35.1529C72.2504 34.5863 72.3921 33.8927 72.3921 33.0721Z" fill="#1A1A1A"/>
<path d="M89.493 35.739V23.6201H93.0421V39.4758H89.6983L89.493 35.739ZM89.9916 32.4418L91.1795 32.4125C91.1795 33.4774 91.0622 34.4592 90.8276 35.358C90.5929 36.247 90.2311 37.0237 89.7423 37.688C89.2534 38.3425 88.6277 38.8554 87.865 39.2267C87.1024 39.5881 86.1882 39.7689 85.1225 39.7689C84.3501 39.7689 83.6413 39.6565 82.996 39.4318C82.3507 39.2071 81.7934 38.8603 81.3241 38.3914C80.8645 37.9224 80.5077 37.3119 80.2535 36.5596C79.9992 35.8074 79.8721 34.9086 79.8721 33.8633V23.6201H83.4066V33.8926C83.4066 34.469 83.4751 34.9526 83.6119 35.3433C83.7488 35.7243 83.9346 36.0321 84.1692 36.2665C84.4039 36.501 84.6777 36.6671 84.9905 36.7648C85.3034 36.8625 85.6358 36.9113 85.9878 36.9113C86.9949 36.9113 87.7868 36.7159 88.3637 36.3252C88.9503 35.9246 89.3659 35.3873 89.6103 34.7132C89.8645 34.0391 89.9916 33.282 89.9916 32.4418Z" fill="#1A1A1A"/>
<path d="M105.566 35.1822C105.566 34.8305 105.478 34.513 105.302 34.2297C105.126 33.9366 104.789 33.6729 104.29 33.4384C103.802 33.2039 103.078 32.989 102.12 32.7936C101.279 32.608 100.507 32.3882 99.8025 32.1342C99.1083 31.8704 98.5119 31.5529 98.0132 31.1817C97.5146 30.8104 97.1284 30.3708 96.8546 29.8628C96.5809 29.3548 96.444 28.7687 96.444 28.1043C96.444 27.4596 96.5858 26.849 96.8693 26.2726C97.1528 25.6962 97.5586 25.1882 98.0866 24.7486C98.6145 24.3089 99.2549 23.9621 100.008 23.7081C100.771 23.4541 101.621 23.3271 102.56 23.3271C103.89 23.3271 105.029 23.5518 105.977 24.0012C106.935 24.4408 107.668 25.0416 108.177 25.8036C108.685 26.5559 108.94 27.4058 108.94 28.3535H105.405C105.405 27.9334 105.297 27.5426 105.082 27.1811C104.877 26.8099 104.564 26.5119 104.144 26.2872C103.723 26.0528 103.195 25.9355 102.56 25.9355C101.954 25.9355 101.45 26.0332 101.049 26.2286C100.658 26.4142 100.365 26.6585 100.169 26.9613C99.9834 27.2642 99.8905 27.5963 99.8905 27.9578C99.8905 28.2216 99.9394 28.4609 100.037 28.6758C100.145 28.881 100.321 29.0715 100.565 29.2474C100.81 29.4134 101.142 29.5697 101.563 29.7163C101.993 29.8628 102.531 30.0045 103.176 30.1412C104.388 30.3952 105.429 30.7225 106.3 31.1231C107.18 31.5138 107.854 32.0218 108.324 32.6471C108.793 33.2626 109.028 34.0441 109.028 34.9917C109.028 35.6951 108.876 36.3399 108.573 36.9261C108.28 37.5025 107.849 38.0056 107.282 38.4354C106.715 38.8555 106.036 39.1828 105.244 39.4173C104.462 39.6517 103.582 39.769 102.604 39.769C101.167 39.769 99.9491 39.5149 98.9519 39.0069C97.9546 38.4892 97.1968 37.8297 96.6786 37.0286C96.1702 36.2178 95.916 35.3776 95.916 34.5081H99.3332C99.3723 35.1627 99.5532 35.6854 99.8758 36.0761C100.208 36.4571 100.619 36.7356 101.108 36.9114C101.607 37.0775 102.12 37.1605 102.648 37.1605C103.283 37.1605 103.816 37.0775 104.246 36.9114C104.677 36.7356 105.004 36.5012 105.229 36.208C105.454 35.9052 105.566 35.5632 105.566 35.1822Z" fill="#1A1A1A"/>
<path d="M119.396 23.6196V26.1987H110.45V23.6196H119.396ZM113.031 19.7363H116.566V35.0937C116.566 35.5822 116.634 35.9583 116.771 36.2221C116.918 36.4761 117.118 36.647 117.372 36.735C117.627 36.8229 117.925 36.8669 118.267 36.8669C118.511 36.8669 118.746 36.8522 118.971 36.8229C119.196 36.7936 119.377 36.7643 119.514 36.735L119.528 39.4313C119.235 39.5192 118.893 39.5974 118.502 39.6658C118.12 39.7342 117.68 39.7684 117.182 39.7684C116.37 39.7684 115.652 39.6267 115.026 39.3434C114.4 39.0503 113.911 38.5765 113.559 37.9219C113.207 37.2674 113.031 36.3979 113.031 35.3135V19.7363Z" fill="#1A1A1A"/>
<path d="M136.585 27.0492V29.9654H125.248V27.0492H136.585ZM126.157 18.1396V39.4759H122.476V18.1396H126.157ZM139.415 18.1396V39.4759H135.749V18.1396H139.415Z" fill="#1A1A1A"/>
<path d="M142.774 31.7239V31.3868C142.774 30.2438 142.94 29.1838 143.272 28.2069C143.605 27.2202 144.084 26.3654 144.71 25.6425C145.345 24.9098 146.118 24.3431 147.027 23.9426C147.946 23.5323 148.982 23.3271 150.136 23.3271C151.299 23.3271 152.336 23.5323 153.245 23.9426C154.164 24.3431 154.942 24.9098 155.577 25.6425C156.213 26.3654 156.697 27.2202 157.029 28.2069C157.361 29.1838 157.528 30.2438 157.528 31.3868V31.7239C157.528 32.8669 157.361 33.9269 157.029 34.9038C156.697 35.8807 156.213 36.7356 155.577 37.4683C154.942 38.1912 154.169 38.7578 153.26 39.1681C152.351 39.5687 151.319 39.769 150.165 39.769C149.002 39.769 147.961 39.5687 147.041 39.1681C146.132 38.7578 145.36 38.1912 144.724 37.4683C144.089 36.7356 143.605 35.8807 143.272 34.9038C142.94 33.9269 142.774 32.8669 142.774 31.7239ZM146.308 31.3868V31.7239C146.308 32.437 146.382 33.1111 146.528 33.7461C146.675 34.3811 146.905 34.938 147.217 35.4167C147.53 35.8954 147.931 36.2715 148.42 36.5451C148.909 36.8186 149.491 36.9554 150.165 36.9554C150.82 36.9554 151.387 36.8186 151.867 36.5451C152.355 36.2715 152.756 35.8954 153.069 35.4167C153.382 34.938 153.612 34.3811 153.758 33.7461C153.915 33.1111 153.993 32.437 153.993 31.7239V31.3868C153.993 30.6834 153.915 30.0191 153.758 29.3939C153.612 28.7589 153.377 28.1971 153.055 27.7087C152.742 27.2202 152.341 26.8392 151.852 26.5657C151.373 26.2823 150.801 26.1407 150.136 26.1407C149.471 26.1407 148.894 26.2823 148.405 26.5657C147.926 26.8392 147.53 27.2202 147.217 27.7087C146.905 28.1971 146.675 28.7589 146.528 29.3939C146.382 30.0191 146.308 30.6834 146.308 31.3868Z" fill="#1A1A1A"/>
<path d="M164.025 26.8441V39.4759H160.49V23.6202H163.819L164.025 26.8441ZM163.453 30.9619L162.25 30.9472C162.25 29.8531 162.387 28.8419 162.661 27.9138C162.934 26.9857 163.335 26.1798 163.863 25.4959C164.391 24.8023 165.046 24.2699 165.828 23.8986C166.62 23.5176 167.535 23.3271 168.571 23.3271C169.295 23.3271 169.954 23.4346 170.551 23.6495C171.157 23.8547 171.68 24.1819 172.12 24.6313C172.57 25.0807 172.912 25.6571 173.147 26.3605C173.391 27.0639 173.513 27.9138 173.513 28.9103V39.4759H169.979V29.218C169.979 28.4463 169.862 27.8406 169.627 27.4009C169.402 26.9613 169.075 26.6487 168.644 26.4631C168.224 26.2677 167.72 26.17 167.134 26.17C166.469 26.17 165.902 26.297 165.433 26.551C164.973 26.805 164.597 27.1518 164.303 27.5914C164.01 28.0311 163.795 28.5391 163.658 29.1155C163.521 29.6919 163.453 30.3073 163.453 30.9619ZM173.293 30.024L171.636 30.3904C171.636 29.433 171.768 28.5293 172.032 27.6794C172.306 26.8197 172.702 26.0674 173.22 25.4226C173.748 24.7681 174.398 24.2552 175.171 23.884C175.943 23.5127 176.828 23.3271 177.825 23.3271C178.637 23.3271 179.36 23.4395 179.996 23.6642C180.641 23.8791 181.189 24.221 181.638 24.6899C182.088 25.1589 182.43 25.7695 182.665 26.5217C182.9 27.2642 183.017 28.163 183.017 29.218V39.4759H179.468V29.2034C179.468 28.4023 179.35 27.7819 179.116 27.3423C178.891 26.9027 178.568 26.5999 178.148 26.4338C177.727 26.2579 177.224 26.17 176.637 26.17C176.09 26.17 175.606 26.2726 175.185 26.4777C174.775 26.6731 174.428 26.9516 174.144 27.313C173.861 27.6647 173.645 28.0701 173.499 28.5293C173.362 28.9885 173.293 29.4867 173.293 30.024Z" fill="#1A1A1A"/>
<path d="M193.65 39.769C192.476 39.769 191.416 39.5785 190.467 39.1974C189.529 38.8067 188.727 38.2645 188.062 37.5708C187.407 36.8772 186.903 36.0615 186.551 35.1236C186.199 34.1858 186.023 33.1746 186.023 32.0902V31.5041C186.023 30.2634 186.204 29.1399 186.566 28.1336C186.928 27.1274 187.431 26.2677 188.077 25.5545C188.722 24.8316 189.485 24.2796 190.365 23.8986C191.244 23.5176 192.198 23.3271 193.224 23.3271C194.359 23.3271 195.351 23.5176 196.202 23.8986C197.052 24.2796 197.756 24.8169 198.313 25.5106C198.88 26.1944 199.301 27.0102 199.575 27.9578C199.858 28.9054 200 29.9507 200 31.0938V32.6031H187.739V30.068H196.51V29.7896C196.49 29.1545 196.363 28.5586 196.128 28.0018C195.903 27.4449 195.556 26.9955 195.087 26.6536C194.618 26.3117 193.992 26.1407 193.21 26.1407C192.623 26.1407 192.1 26.2677 191.64 26.5217C191.191 26.7659 190.814 27.1225 190.511 27.5914C190.208 28.0604 189.973 28.627 189.807 29.2913C189.651 29.9459 189.573 30.6834 189.573 31.5041V32.0902C189.573 32.7839 189.665 33.4286 189.851 34.0246C190.047 34.6107 190.33 35.1236 190.702 35.5632C191.073 36.0029 191.523 36.3497 192.051 36.6037C192.579 36.8479 193.18 36.97 193.855 36.97C194.706 36.97 195.463 36.7991 196.128 36.4571C196.793 36.1152 197.37 35.6316 197.859 35.0064L199.721 36.8088C199.379 37.3071 198.934 37.7858 198.387 38.2449C197.839 38.6943 197.169 39.0607 196.378 39.344C195.595 39.6273 194.686 39.769 193.65 39.769Z" fill="#1A1A1A"/>
</g>
</g>
<defs>
<clipPath id="clip0_2_3503">
<rect width="200" height="57" fill="white" transform="translate(0 0.0898438)"/>
</clipPath>
<clipPath id="clip1_2_3503">
<rect width="200" height="57" fill="white" transform="translate(0 0.0898438)"/>
</clipPath>
</defs>
</svg>
