<svg width="35" height="36" viewBox="0 0 35 36" fill="none" xmlns="http://www.w3.org/2000/svg">
<g clip-path="url(#clip0_2_1402)">
<path d="M13.3 22.1031C13.3 22.3364 13.3778 22.5114 13.5333 22.6281C13.6889 22.7448 13.8444 22.8031 14 22.8031C14.1556 22.8031 14.3111 22.7448 14.4667 22.6281C14.6222 22.5114 14.7 22.3559 14.7 22.1614C14.7 21.967 14.6222 21.8114 14.4667 21.6948C14.3111 21.5781 14.1556 21.5198 14 21.5198C13.8444 21.5198 13.6889 21.5781 13.5333 21.6948C13.3778 21.8114 13.3 21.9475 13.3 22.1031ZM16.8 22.1031C16.8 22.3364 16.8778 22.5114 17.0333 22.6281C17.1889 22.7448 17.3444 22.8031 17.5 22.8031C17.6556 22.8031 17.8111 22.7448 17.9667 22.6281C18.1222 22.5114 18.2 22.3559 18.2 22.1614C18.2 21.967 18.1222 21.8114 17.9667 21.6948C17.8111 21.5781 17.6556 21.5198 17.5 21.5198C17.3444 21.5198 17.1889 21.5781 17.0333 21.6948C16.8778 21.8114 16.8 21.9475 16.8 22.1031ZM20.3 22.1031C20.3 22.3364 20.3778 22.5114 20.5333 22.6281C20.6889 22.7448 20.8444 22.8031 21 22.8031C21.1556 22.8031 21.3111 22.7448 21.4667 22.6281C21.6222 22.5114 21.7 22.3559 21.7 22.1614C21.7 21.967 21.6222 21.8114 21.4667 21.6948C21.3111 21.5781 21.1556 21.5198 21 21.5198C20.8444 21.5198 20.6889 21.5781 20.5333 21.6948C20.3778 21.8114 20.3 21.9475 20.3 22.1031ZM6.53333 22.8031C5.6 22.8031 4.74444 22.5503 3.96667 22.0448C3.18889 21.5392 2.625 20.8586 2.275 20.0031C1.925 19.1475 1.84722 18.2531 2.04167 17.3198C2.23611 16.3864 2.66389 15.5892 3.325 14.9281C3.98611 14.267 4.76389 13.8586 5.65833 13.7031C6.55278 13.5475 7.42778 13.6448 8.28333 13.9948C9.13889 14.3448 9.83889 14.9086 10.3833 15.6864C10.9278 16.4642 11.2 17.3198 11.2 18.2531C11.2 19.4975 10.7528 20.567 9.85833 21.4614C8.96389 22.3559 7.85556 22.8031 6.53333 22.8031ZM6.53333 14.9864C5.91111 14.9864 5.32778 15.1614 4.78333 15.5114C4.23889 15.8614 3.83056 16.3475 3.55833 16.9698C3.28611 17.592 3.22778 18.2336 3.38333 18.8948C3.53889 19.5559 3.85 20.1003 4.31667 20.5281C4.78333 20.9559 5.32778 21.2475 5.95 21.4031C6.57222 21.5586 7.19444 21.5003 7.81667 21.2281C8.43889 20.9559 8.925 20.5475 9.275 20.0031C9.625 19.4586 9.8 18.8753 9.8 18.2531C9.8 17.3198 9.48889 16.542 8.86667 15.9198C8.24444 15.2975 7.46667 14.9864 6.53333 14.9864ZM12.4833 31.0864H0.7C0.466667 31.0864 0.291667 31.0281 0.175 30.9114C0.0583333 30.7948 0 30.6198 0 30.3864V28.0531C0 26.2642 0.641667 24.7281 1.925 23.4448C3.20833 22.1614 4.76389 21.5198 6.59167 21.5198C8.41944 21.5198 9.95556 22.1614 11.2 23.4448C12.4444 24.7281 13.1056 26.2642 13.1833 28.0531V30.3864C13.1833 30.6198 13.1056 30.7948 12.95 30.9114C12.7944 31.0281 12.6389 31.0864 12.4833 31.0864ZM1.4 29.6864H11.7833V28.0531C11.7833 26.6531 11.2778 25.4475 10.2667 24.4364C9.25556 23.4253 8.03056 22.9198 6.59167 22.9198C5.15278 22.9198 3.92778 23.4253 2.91667 24.4364C1.90556 25.4475 1.4 26.6531 1.4 28.0531V29.6864ZM28.4667 22.8031C27.5333 22.8031 26.6778 22.5503 25.9 22.0448C25.1222 21.5392 24.5583 20.8586 24.2083 20.0031C23.8583 19.1475 23.7611 18.2531 23.9167 17.3198C24.0722 16.3864 24.4806 15.5892 25.1417 14.9281C25.8028 14.267 26.6 13.8586 27.5333 13.7031C28.4667 13.5475 29.3611 13.6448 30.2167 13.9948C31.0722 14.3448 31.7528 14.9086 32.2583 15.6864C32.7639 16.4642 33.0167 17.3198 33.0167 18.2531C33.0167 19.4975 32.5694 20.567 31.675 21.4614C30.7806 22.3559 29.7111 22.8031 28.4667 22.8031ZM28.4667 14.9864C27.7667 14.9864 27.1444 15.1614 26.6 15.5114C26.0556 15.8614 25.6667 16.3475 25.4333 16.9698C25.2 17.592 25.1417 18.2336 25.2583 18.8948C25.375 19.5559 25.6667 20.1003 26.1333 20.5281C26.6 20.9559 27.1639 21.2475 27.825 21.4031C28.4861 21.5586 29.1083 21.5003 29.6917 21.2281C30.275 20.9559 30.7417 20.5475 31.0917 20.0031C31.4417 19.4586 31.6167 18.8753 31.6167 18.2531C31.6167 17.3198 31.3056 16.542 30.6833 15.9198C30.0611 15.2975 29.3222 14.9864 28.4667 14.9864ZM34.3 31.0864H22.5167C22.3611 31.0864 22.2056 31.0281 22.05 30.9114C21.8944 30.7948 21.8167 30.6198 21.8167 30.3864V28.0531C21.8944 26.2642 22.5556 24.7281 23.8 23.4448C25.0444 22.1614 26.5806 21.5198 28.4083 21.5198C30.2361 21.5198 31.7917 22.1614 33.075 23.4448C34.3583 24.7281 35 26.2642 35 28.0531V30.3864C35 30.6198 34.9417 30.7948 34.825 30.9114C34.7083 31.0281 34.5333 31.0864 34.3 31.0864ZM23.2167 29.6864H33.6V28.0531C33.6 26.6531 33.0944 25.4475 32.0833 24.4364C31.0722 23.4253 29.8472 22.9198 28.4083 22.9198C26.9694 22.9198 25.7444 23.4253 24.7333 24.4364C23.7222 25.4475 23.2167 26.6531 23.2167 28.0531V29.6864ZM14.35 18.0198C14.1944 18.0198 14.0389 17.9614 13.8833 17.8448C13.7278 17.7281 13.65 17.592 13.65 17.4364V15.3364H13.0667C12.4444 15.3364 11.9 15.1225 11.4333 14.6948C10.9667 14.267 10.7333 13.742 10.7333 13.1198V6.46976C10.7333 5.84754 10.9667 5.32254 11.4333 4.89476C11.9 4.46698 12.4444 4.25309 13.0667 4.25309H21.8167C22.4389 4.25309 22.9639 4.46698 23.3917 4.89476C23.8194 5.32254 24.0333 5.84754 24.0333 6.46976V13.1198C24.0333 13.742 23.8194 14.267 23.3917 14.6948C22.9639 15.1225 22.4389 15.3364 21.8167 15.3364H17.3833L14.8167 17.9031C14.7389 18.0586 14.5833 18.0975 14.35 18.0198ZM13.0667 5.65309C12.8333 5.65309 12.6194 5.73087 12.425 5.88643C12.2306 6.04198 12.1333 6.23643 12.1333 6.46976V13.1198C12.1333 13.3531 12.2306 13.567 12.425 13.7614C12.6194 13.9559 12.8333 14.0531 13.0667 14.0531H14.35C14.5833 14.0531 14.7583 14.1114 14.875 14.2281C14.9917 14.3448 15.05 14.4809 15.05 14.6364V15.6864L16.5667 14.1698C16.7222 14.092 16.8778 14.0531 17.0333 14.0531H21.8167C22.05 14.0531 22.2639 13.9559 22.4583 13.7614C22.6528 13.567 22.75 13.3531 22.75 13.1198V6.46976C22.75 6.23643 22.6528 6.04198 22.4583 5.88643C22.2639 5.73087 22.05 5.65309 21.8167 5.65309H13.0667Z" fill="#1A1A1A"/>
</g>
<defs>
<clipPath id="clip0_2_1402">
<rect width="35" height="35" fill="white" transform="matrix(1 0 0 -1 0 35.1699)"/>
</clipPath>
</defs>
</svg>
