<svg width="16" height="14" viewBox="0 0 16 14" fill="none" xmlns="http://www.w3.org/2000/svg">
<g clip-path="url(#clip0_2_4092)">
<path d="M1.04737 6.42826H13.058L8.45895 2.04902C8.21812 1.81969 8.20879 1.43871 8.43817 1.19796C8.66725 0.957509 9.04835 0.947879 9.28947 1.17719L14.5418 6.17878C14.769 6.40628 14.8946 6.70843 14.8946 7.03013C14.8946 7.35153 14.769 7.65398 14.5312 7.89141L9.28917 12.8828C9.17268 12.9938 9.02337 13.0489 8.87406 13.0489C8.71511 13.0489 8.55617 12.9863 8.43787 12.862C8.20849 12.6213 8.21782 12.2406 8.45864 12.0113L13.077 7.63201H1.04737C0.715032 7.63201 0.445312 7.36237 0.445312 7.03013C0.445312 6.6979 0.715032 6.42826 1.04737 6.42826Z" fill="#E7C873"/>
</g>
<defs>
<clipPath id="clip0_2_4092">
<rect width="15" height="12.84" fill="white" transform="translate(0.169922 0.609985)"/>
</clipPath>
</defs>
</svg>
