<svg width="21" height="21" viewBox="0 0 21 21" fill="none" xmlns="http://www.w3.org/2000/svg">
<g clip-path="url(#clip0_2_971)">
<path d="M15.35 20.88C13.5277 20.88 11.75 20.5467 10.0166 19.88C8.1944 19.1689 6.58328 18.1022 5.18328 16.68C3.78328 15.2578 2.70551 13.6356 1.94995 11.8133C1.28328 10.08 0.949951 8.30223 0.949951 6.48C0.949951 5.45778 1.20551 4.52445 1.71662 3.68C2.22773 2.83556 2.90551 2.15778 3.74995 1.64667C4.5944 1.13556 5.52773 0.880003 6.54995 0.880003C6.81662 0.880003 6.9944 1.01334 7.08328 1.28L9.61662 7.54667C9.66106 7.68 9.64995 7.82445 9.58329 7.98C9.51662 8.13556 9.41662 8.23556 9.28329 8.28L6.54995 9.41334C6.5944 10.4356 6.88329 11.3911 7.41662 12.28C7.94995 13.1689 8.66106 13.88 9.54995 14.4133C10.4388 14.9467 11.3944 15.2356 12.4166 15.28L13.55 12.5467C13.5944 12.4133 13.6944 12.3133 13.85 12.2467C14.0055 12.18 14.15 12.1689 14.2833 12.2133L20.55 14.7467C20.8166 14.8356 20.95 15.0133 20.95 15.28C20.95 16.3022 20.6944 17.2356 20.1833 18.08C19.6722 18.9244 18.9944 19.6022 18.15 20.1133C17.3055 20.6244 16.3722 20.88 15.35 20.88ZM6.14995 2.08C5.03884 2.16889 4.0944 2.63556 3.31662 3.48C2.53884 4.32445 2.14995 5.32445 2.14995 6.48C2.14995 8.25778 2.48328 9.94667 3.14995 11.5467C3.81662 13.1467 4.77217 14.5689 6.01662 15.8133C7.26106 17.0578 8.68328 18.0133 10.2833 18.68C11.8833 19.3467 13.5722 19.68 15.35 19.68C16.5055 19.68 17.5055 19.2911 18.35 18.5133C19.1944 17.7356 19.6611 16.7911 19.75 15.68L14.4166 13.5467L13.35 16.1467C13.2611 16.3689 13.0833 16.48 12.8166 16.48C11.4833 16.48 10.2388 16.1467 9.08329 15.48C7.92773 14.8133 7.01662 13.9022 6.34995 12.7467C5.68328 11.5911 5.34995 10.3467 5.34995 9.01334C5.34995 8.74667 5.46106 8.56889 5.68328 8.48L8.28328 7.41334L6.14995 2.08Z" fill="#1A1A1A"/>
</g>
<defs>
<clipPath id="clip0_2_971">
<rect width="20" height="20" fill="white" transform="matrix(1 0 0 -1 0.949951 20.88)"/>
</clipPath>
</defs>
</svg>
